<svg xmlns="http://www.w3.org/2000/svg" viewBox="0 0 927.76 652.13"><defs><style>.a{fill:none;stroke:#000;stroke-linejoin:round;stroke-width:57.26px;}</style></defs><path class="a" d="M663.47,684.5H497.11a44.61,44.61,0,0,1-44.61-44.61V295.11a44.61,44.61,0,0,1,44.61-44.61h638.78a44.61,44.61,0,0,1,44.61,44.61V639.89a44.61,44.61,0,0,1-44.61,44.61H982.11" transform="translate(-423.87 -221.87)"/><polyline class="a" points="756.63 170.63 899.13 92.63 899.13 398.63 756.63 340.65"/><path d="M790.74,688.53q7.92-27.39,19.14-46.2t29.37-43.23Q852.45,581,860,569.23a118.93,118.93,0,0,0,12.54-26.07,94,94,0,0,0,4.95-30.86V512q0-28.71-14.69-44.55t-41.08-15.84q-26.73,0-41.42,19.64t-15,55.61v.33H697v-.33q1.32-43.58,16.5-74.42t42.58-47q27.38-16.17,65-16.17,39.27,0,67.32,14.52a98.7,98.7,0,0,1,42.74,42.08q14.69,27.56,14.68,66.49v.33q0,23.45-6.1,42.25a145.32,145.32,0,0,1-14.85,32.67q-8.75,13.86-23.93,33.66a452.77,452.77,0,0,0-26.73,37.46Q864,675,857.07,697.94t-6.93,53H782.82Q782.82,715.94,790.74,688.53Zm-9.57,114.85h70.62V874H781.17Z" transform="translate(-423.87 -221.87)"/></svg>