<?xml version="1.0" encoding="UTF-8"?>
<svg width="240px" height="42px" viewBox="0 0 240 42" version="1.1" xmlns="http://www.w3.org/2000/svg" xmlns:xlink="http://www.w3.org/1999/xlink">
    <title>D797B5A7-81FB-42B5-B0E2-1EE91FDEF54D</title>
    <defs>
        <linearGradient x1="0.0259336311%" y1="50.0017373%" x2="99.8937125%" y2="50.0017373%" id="linearGradient-1">
            <stop stop-color="#263D88" offset="0%"></stop>
            <stop stop-color="#0057A2" offset="55%"></stop>
            <stop stop-color="#0095DA" offset="100%"></stop>
        </linearGradient>
        <linearGradient x1="0%" y1="50.0185943%" x2="100.030617%" y2="50.0185943%" id="linearGradient-2">
            <stop stop-color="#21255E" offset="0%"></stop>
            <stop stop-color="#243F8E" offset="55%"></stop>
            <stop stop-color="#008BCC" offset="100%"></stop>
        </linearGradient>
        <linearGradient x1="-5.02961741e-15%" y1="50%" x2="100.024733%" y2="50%" id="linearGradient-3">
            <stop stop-color="#273575" offset="0%"></stop>
            <stop stop-color="#009AD7" offset="100%"></stop>
        </linearGradient>
    </defs>
    <g id="ELEMENT-SHEET" stroke="none" stroke-width="1" fill="none" fill-rule="evenodd">
        <g transform="translate(-43.000000, -227.000000)" id="Logos/simplevisor-horizontal-color">
            <g transform="translate(43.000000, 227.000000)" id="SimpleVisor_horizontal_color">
                <path d="M34.8523841,19.4306357 C34.7142789,19.3999457 34.5800099,19.3730919 34.4380684,19.3500743 C31.1043621,18.9664487 27.0187497,19.810425 24.0801777,21.1761321 C19.6531385,23.2208564 16.5534438,26.6504691 16.8219817,31.7488531 C16.9562507,34.2577644 17.846262,36.7359857 18.8858874,39.0070491 C19.1314077,39.4827448 19.3922731,39.9469318 19.6531385,40.3957737 C27.1798724,34.0812967 32.167005,27.5826793 34.8523841,19.4306357 Z" id="Path" fill="url(#linearGradient-1)" fill-rule="nonzero"></path>
                <path d="M0.625309698,2.91939067 C3.18409233,6.19555314 6.67508512,7.05487444 10.9832004,6.58685123 C14.8424737,6.16486309 18.8129985,4.86437237 22.1083423,4.95260626 C26.7693931,5.08303895 29.6465849,6.82086284 31.4726427,10.2504755 C33.1529227,10.2159492 34.9252729,10.2312943 36.7628395,10.3156919 C37.0260776,7.9348721 37.1541582,5.5410456 37.146792,3.14572977 C31.357555,1.00126277 23.9267275,0 18.5674781,0 C13.4115503,0 6.31447707,0.932210163 0.625309698,2.91939067 Z" id="Path" fill="url(#linearGradient-2)" fill-rule="nonzero"></path>
                <path d="M35.2360097,18.0879462 C37.0582312,18.506098 38.420102,19.3922731 38.9418328,20.63522 C42.88934,13.8680648 39.2870958,11.1941945 35.1746296,11.1941945 L30.9317306,11.1941945 C29.0136027,8.07148223 26.4624926,6.37969342 21.9817458,6.37969342 C15.2145906,6.37969342 5.773565,12.9550359 -1.09032948e-14,3.14572977 C-1.09032948e-14,9.24154026 6.06512044,12.9281821 12.506194,11.861703 C8.577868,13.5458193 3.34137881,13.7798309 0.514058279,11.3591535 C0.730336918,12.995095 1.03124712,14.6187297 1.4155784,16.2235258 C3.61758923,17.1058647 8.6737744,16.6071514 12.1839485,15.4946372 L2.38615112,19.6186122 C2.82652314,20.9572432 3.33876777,22.2711507 3.92065344,23.5546107 L12.9857259,18.460063 C9.47938812,20.9574655 6.84771663,24.1108678 6.08046547,27.5443167 C7.10200579,29.2225513 8.23765464,30.82861 9.47938812,32.3511453 C9.20701395,28.1005738 11.052253,24.3295344 14.8501463,21.1799684 C9.64818337,28.1120826 12.3220537,36.1874011 18.6058407,41.3011301 C16.4383562,37.7142309 15.4179121,34.5608286 15.2874794,31.821742 C14.666006,20.6275475 28.5570883,16.5611164 35.2360097,18.0879462 Z M21.4830326,11.1059606 C22.9427496,10.9279438 24.4203269,10.9576503 25.8717092,11.1941945 C25.3077796,12.851457 22.6377456,13.3693515 21.2106584,12.8476207 C19.7835712,12.3258899 19.465162,11.4473873 21.4830326,11.1059606 Z" id="Shape" fill="url(#linearGradient-3)"></path>
                <path d="M34.6337175,19.3884369 C31.2846662,18.7362734 26.9612059,19.6377935 23.9650901,21.0341906 C19.5649047,23.078915 16.3923211,26.6504691 16.676204,31.7488531 C16.825818,34.5800099 17.965186,37.3958217 19.3615831,39.8625342 C17.5278528,35.7308867 16.46521,31.1542335 18.7823085,26.9650421 C21.7477342,21.594284 28.8601525,19.3769281 34.6375537,19.3884369" id="Path" fill="#030E50" fill-rule="nonzero"></path>
                <path d="M0.625309698,2.91939067 C3.04215086,6.55232493 6.763319,7.41164623 11.0484167,6.94362302 C14.9076901,6.52163488 18.8398523,5.1482553 22.1735586,5.24032544 C26.7962469,5.36692188 29.4816259,7.01651188 31.4803152,10.2504755 C29.1747255,4.92575247 23.454868,3.3337063 14.547082,5.30937805 C7.79910807,6.81319033 3.65595179,6.27227826 0.625309698,2.91555442" id="Path" fill="#0071BC" fill-rule="nonzero"></path>
                <path d="M54.5592302,28.4113106 L57.5323284,24.8742827 C59.5847253,26.5699078 61.7522098,27.6478957 64.349355,27.6478957 C66.4055881,27.6478957 67.648535,26.8307732 67.648535,25.4957561 L67.648535,25.4113585 C67.648535,24.1377216 66.8812839,23.4932306 63.0450281,22.5073129 C58.4415211,21.3295823 55.4760953,20.0597817 55.4760953,15.521491 L55.4760953,15.4562747 C55.4760953,11.3131184 58.8021291,8.55101421 63.4708524,8.55101421 C66.5513353,8.50124766 69.5525682,9.52834227 71.9566503,11.4550599 L69.3441601,15.2414444 C67.3224533,13.8373747 65.3314365,12.9895622 63.4056361,12.9895622 C61.4798357,12.9895622 60.4670641,13.871901 60.4670641,14.980579 L60.4670641,15.0457953 C60.4670641,16.5457713 61.4453094,17.0368121 65.3966529,18.0495836 C70.0308499,19.2541679 72.6395038,20.919103 72.6395038,24.9011365 L72.6395038,24.9663528 C72.6395038,29.5046435 69.1868736,32.0482668 64.2534486,32.0482668 C60.6853197,32.0661063 57.2350802,30.7717545 54.5592302,28.4113106 L54.5592302,28.4113106 Z" id="Path" fill="#231F1F" fill-rule="nonzero"></path>
                <path d="M75.551222,7.918032 L80.7723662,7.918032 L80.7723662,12.3220537 L75.551222,12.3220537 L75.551222,7.918032 Z M75.6816547,14.2478541 L80.6419335,14.2478541 L80.6419335,31.7411806 L75.6816547,31.7411806 L75.6816547,14.2478541 Z" id="Shape" fill="#231F1F" fill-rule="nonzero"></path>
                <path d="M84.4858618,14.2478541 L89.4461406,14.2478541 L89.4461406,16.7299116 C90.5970173,15.2606256 92.0893208,13.9217724 94.6020684,13.9217724 C96.8846406,13.9217724 98.614792,14.9345439 99.5278208,16.6953853 C101.062323,14.9038538 102.892217,13.9217724 105.282205,13.9217724 C108.968846,13.9217724 111.186202,16.1429645 111.186202,20.3513371 L111.186202,31.7411806 L106.206742,31.7411806 L106.206742,21.9817458 C106.206742,19.6339573 105.163281,18.4255367 103.302697,18.4255367 C101.442112,18.4255367 100.302745,19.6339573 100.302745,21.9817458 L100.302745,31.7411806 L95.3539745,31.7411806 L95.3539745,21.9817458 C95.3539745,19.6339573 94.3066767,18.4255367 92.4460926,18.4255367 C90.5855085,18.4255367 89.4461406,19.6339573 89.4461406,21.9817458 L89.4461406,31.7411806 L84.4858618,31.7411806 L84.4858618,14.2478541 Z" id="Path" fill="#231F1F" fill-rule="nonzero"></path>
                <path d="M114.562107,14.2478541 L119.522386,14.2478541 L119.522386,16.7606017 C120.730807,15.1301929 122.395742,13.9217724 124.973706,13.9217724 C129.051646,13.9217724 132.937773,17.1212097 132.937773,22.9638273 L132.937773,23.0290437 C132.937773,28.867825 129.101517,32.0672624 124.973706,32.0672624 C122.849832,32.1124747 120.8292,31.1526392 119.522386,29.4777897 L119.522386,36.9815061 L114.562107,36.9815061 L114.562107,14.2478541 Z M127.989003,23.0290437 L127.989003,22.9561548 C127.989003,20.0521091 126.028676,18.1263087 123.711578,18.1263087 C121.394479,18.1263087 119.468679,20.0444366 119.468679,22.9561548 L119.468679,23.0213711 C119.468679,25.9254168 121.386806,27.8512172 123.711578,27.8512172 C126.036349,27.8512172 127.977494,25.9637794 127.977494,23.0290437 L127.989003,23.0290437 Z" id="Shape" fill="#231F1F" fill-rule="nonzero"></path>
                <polygon id="Path" fill="#231F1F" fill-rule="nonzero" points="135.76893 7.918032 140.733045 7.918032 140.733045 31.7411806 135.76893 31.7411806"></polygon>
                <path d="M143.587219,23.09426 L143.587219,23.0290437 C143.587219,18.0419111 147.143428,13.9217724 152.234139,13.9217724 C158.076757,13.9217724 160.750627,18.460063 160.750627,23.4203417 C160.750627,23.8039673 160.719937,24.2681543 160.689247,24.7246687 L148.512971,24.7246687 C149.004012,26.9765509 150.569204,28.1504452 152.790397,28.1504452 C154.455332,28.1504452 155.659916,27.6287144 157.033296,26.3550774 L159.872125,28.867825 C158.23788,30.8933681 155.890091,32.1324787 152.72518,32.1324787 C147.46951,32.1324787 143.587219,28.4458369 143.587219,23.09426 Z M155.920781,21.624974 C155.629226,19.4037819 154.324899,17.9038059 152.234139,17.9038059 C150.14338,17.9038059 148.839053,19.3730919 148.447755,21.624974 L155.920781,21.624974 Z" id="Shape" fill="#231F1F" fill-rule="nonzero"></path>
                <polygon id="Path" fill="#231F1F" fill-rule="nonzero" points="159.757037 8.89627723 165.304263 8.89627723 171.277313 24.9855341 177.250364 8.89627723 182.667157 8.89627723 173.429453 31.9138121 168.994741 31.9138121"></polygon>
                <path d="M184.761753,7.918032 L189.982897,7.918032 L189.982897,12.3220537 L184.761753,12.3220537 L184.761753,7.918032 Z M184.896021,14.2478541 L189.837119,14.2478541 L189.837119,31.7411806 L184.896021,31.7411806 L184.896021,14.2478541 Z" id="Shape" fill="#231F1F" fill-rule="nonzero"></path>
                <path d="M192.338358,29.3857195 L194.459807,26.1249021 C196.351081,27.4944454 198.342098,28.2118253 199.972507,28.2118253 C201.411103,28.2118253 202.063266,27.6900945 202.063266,26.9074983 L202.063266,26.8422819 C202.063266,25.764294 200.367641,25.4075223 198.441841,24.8167389 C195.99431,24.1070315 193.220697,22.9561548 193.220697,19.5649047 L193.220697,19.5035246 C193.220697,15.9473154 196.090216,13.9562987 199.615735,13.9562987 C201.938689,13.9897122 204.202843,14.6916 206.13737,15.9780055 L204.246096,19.4037819 C202.515944,18.3948466 200.793466,17.7733732 199.515992,17.7733732 C198.307572,17.7733732 197.686098,18.295104 197.686098,18.9817938 L197.686098,19.0470101 C197.686098,20.0252554 199.351033,20.4817698 201.242308,21.1339333 C203.689839,21.9510558 206.528668,23.12495 206.528668,26.3243874 L206.528668,26.3896037 C206.528668,30.2718946 203.624622,32.032736 199.842074,32.032736 C197.115758,32.0111776 194.474766,31.0795392 192.338358,29.3857195 L192.338358,29.3857195 Z" id="Path" fill="#231F1F" fill-rule="nonzero"></path>
                <path d="M208.09386,23.09426 L208.09386,23.0290437 C208.09386,18.0035485 212.14111,13.9217724 217.59243,13.9217724 C223.043749,13.9217724 227.021947,17.9383322 227.021947,22.9561548 L227.021947,23.0213711 C227.021947,28.0468663 222.974697,32.1248062 217.527213,32.1248062 C212.07973,32.1248062 208.09386,28.1197551 208.09386,23.09426 Z M222.126884,23.09426 L222.126884,23.0290437 C222.126884,20.4510797 220.2663,18.1991976 217.523377,18.1991976 C214.684548,18.1991976 212.985087,20.3858634 212.985087,22.9638273 L212.985087,23.0290437 C212.985087,25.6070076 214.845671,27.8588897 217.588594,27.8588897 C220.431259,27.8588897 222.126884,25.6722239 222.126884,23.09426 L222.126884,23.09426 Z" id="Shape" fill="#231F1F" fill-rule="nonzero"></path>
                <path d="M229.461805,14.2478541 L234.422084,14.2478541 L234.422084,17.7733732 C235.431019,15.356532 237.065264,13.7913397 240,13.9371174 L240,19.119899 L239.739135,19.119899 C236.443791,19.119899 234.422084,21.1109157 234.422084,25.2885983 L234.422084,31.7411806 L229.461805,31.7411806 L229.461805,14.2478541 Z" id="Path" fill="#231F1F" fill-rule="nonzero"></path>
            </g>
        </g>
    </g>
</svg>