<?xml version="1.0" encoding="UTF-8"?>
<svg width="306px" height="53px" viewBox="0 0 306 53" version="1.1" xmlns="http://www.w3.org/2000/svg" xmlns:xlink="http://www.w3.org/1999/xlink">
    <title>89EF12CB-6193-41F4-8114-1640D4A34400</title>
    <g id="ELEMENT-SHEET" stroke="none" stroke-width="1" fill="none" fill-rule="evenodd">
        <g id="Element-Sheet---Landing" transform="translate(-40.000000, -401.000000)" fill="#FFFFFF" fill-rule="nonzero">
            <g id="logo/simplevisor-light" transform="translate(40.654676, 401.000000)">
                <path d="M44.6263257,14.1926492 L39.2304916,14.1926492 C36.7977441,10.2321362 33.5621898,8.09131836 27.8792916,8.09131836 C19.2965582,8.09131836 7.32257473,16.430777 2.29743864e-06,3.98484049 C-0.00486089806,11.7355742 7.71181434,16.391853 15.8615186,15.0392454 C10.8792517,17.1751977 4.23785083,17.4963204 0.651980941,14.4018655 C0.926728588,16.4782554 1.30836577,18.5390962 1.79537229,20.5761788 C4.58816648,21.6952427 11.000889,21.0627283 15.4528171,19.6468692 L3.02634255,24.872411 C3.58402886,26.5704864 4.2337224,28.2369503 4.9725406,29.864409 L16.4697055,23.4127624 C12.022643,26.5850653 8.68491336,30.5796367 7.71181434,34.9391204 C8.99629705,37.0624337 10.4235516,39.0960276 11.983719,41.0258547 C11.6382689,35.6348862 13.978572,30.8521045 18.7954122,26.857533 C12.1978008,35.6543481 15.5890509,45.8962153 23.5587319,52.3770548 C20.8486511,47.8326824 19.5544294,43.8478419 19.3890026,40.3592819 C18.6007924,26.1617672 36.2187502,21.0043424 44.6895771,22.9262129 C47.0006873,23.4516864 48.7279381,24.5756158 49.3896454,26.1520362 C54.4205674,17.5741683 49.8421365,14.1926492 44.6263257,14.1926492 Z M26.901327,16.2896776 C25.1254213,15.6425668 24.6875268,14.4943099 27.2467772,14.0807428 C29.0981256,13.8549654 30.972126,13.892642 32.8129036,14.1926492 C32.0976758,16.2994086 28.7112912,16.9513849 26.901327,16.2896776 Z" id="Shape"></path>
                <path d="M43.9256944,24.5902123 L43.8478465,24.5902123 L43.6532267,24.5512883 L43.5705133,24.5512883 C39.3764565,23.8457915 34.1071253,24.9697209 30.3947525,26.6921061 C24.8140296,29.2513566 20.7902652,33.795729 21.1405808,40.261972 C21.3108732,43.4440058 22.45913,46.5871156 23.952837,49.4577577 L23.952837,49.4577577 C23.9599631,49.4744493 23.9680869,49.4906969 23.9771645,49.5064127 C24.1620533,49.8567283 24.3518076,50.2021785 24.5415619,50.5427632 L24.4977725,50.4308568 C24.6437373,50.6935935 24.7848367,50.9611957 24.935667,51.2142015 C34.4720374,43.220193 40.7971811,34.9780443 44.2030276,24.6388672 L43.9402909,24.5902123 L43.9256944,24.5902123 Z" id="Path"></path>
                <path d="M14.036958,8.81627713 C18.9316461,8.28593816 23.9187785,6.53922542 28.1468938,6.6559973 C33.9854879,6.80682765 37.3913345,8.89899055 39.9262574,13.0006029 C42.0573443,12.951948 44.305203,12.97141 46.6357752,13.0784508 C46.9696382,10.0588746 47.1320819,7.02280199 47.1227394,3.98484049 C39.7851581,1.26502873 30.3606941,-8.64285551e-16 23.5635974,-8.64285551e-16 C17.0097755,-8.64285551e-16 7.99401306,1.17744982 0.793080299,3.70264178 C3.85834222,8.32972762 8.55841049,9.40013654 14.036958,8.81627713 Z" id="Path"></path>
                <path d="M69.197076,36.0338568 L72.9678347,31.5186773 C75.5708746,33.6740916 78.3198793,35.0412958 81.6138195,35.0412958 C84.2217249,35.0412958 85.7981453,34.0049453 85.7981453,32.3068875 L85.7981453,32.2241741 C85.7981453,30.6088297 84.8250463,29.7914265 79.9595512,28.5409943 C74.120957,27.0521528 70.3599293,25.4368084 70.3599293,19.6809277 L70.3599293,19.5982143 C70.3599293,14.3434796 74.5783136,10.8695161 80.4996211,10.8695161 C84.406575,10.8063975 88.2130166,12.1090541 91.2620963,14.5526959 L87.9486941,19.350074 C85.3845782,17.5741683 82.8593862,16.4988939 80.4169077,16.4988939 C77.9744292,16.4988939 76.6899385,17.6130923 76.6899385,19.0192204 L76.6899385,19.1019338 C76.6899385,21.0092079 77.9306397,21.6271257 82.9420997,22.9116165 C88.8196178,24.4442474 92.1281544,26.5558723 92.1281544,31.6013907 L92.1281544,31.6841041 C92.1281544,37.4351193 87.7492088,40.6611102 81.4921821,40.6611102 C76.9647565,40.6802335 72.5884539,39.0332751 69.197076,36.0338568 Z" id="Path"></path>
                <path d="M95.8210652,10.0375164 L102.443004,10.0375164 L102.443004,15.6279703 L95.8210652,15.6279703 L95.8210652,10.0375164 Z M95.986492,18.0607178 L102.277577,18.0607178 L102.277577,40.252241 L95.986492,40.252241 L95.986492,18.0607178 Z" id="Shape"></path>
                <path d="M107.152803,18.0607178 L113.443888,18.0607178 L113.443888,21.2038277 C114.903537,19.340343 116.796215,17.6471507 119.983114,17.6471507 C122.878083,17.6471507 125.072422,18.926776 126.23041,21.1649037 C128.176608,18.887852 130.497449,17.6471507 133.528652,17.6471507 C138.194662,17.6568817 141.02638,20.4934654 141.02638,25.8114515 L141.02638,40.252241 L134.701237,40.252241 L134.701237,27.879287 C134.701237,24.8967385 133.377822,23.368973 131.018057,23.368973 C128.658292,23.368973 127.21324,24.8967385 127.21324,27.879287 L127.21324,40.252241 L120.936751,40.252241 L120.936751,27.879287 C120.936751,24.8967385 119.608471,23.368973 117.248706,23.368973 C114.888941,23.368973 113.443888,24.8967385 113.443888,27.879287 L113.443888,40.252241 L107.152803,40.252241 L107.152803,18.0607178 Z" id="Path"></path>
                <path d="M145.298285,18.0607178 L151.58937,18.0607178 L151.58937,21.2476171 C153.122001,19.1749162 155.233626,17.6471507 158.503239,17.6471507 C163.67526,17.6471507 168.604006,21.7001082 168.604006,29.1102572 L168.604006,29.1929706 C168.604006,36.6031197 163.738511,40.6560771 158.503239,40.6560771 C155.804798,40.7099548 153.240262,39.4827312 151.58937,37.3475404 L151.58937,46.8693144 L145.298285,46.8693144 L145.298285,18.0607178 Z M162.327518,29.1929706 L162.327518,29.1102572 C162.327518,25.4270774 159.84125,22.9845989 156.902491,22.9845989 C153.963732,22.9845989 151.521253,25.4173464 151.521253,29.1102572 L151.521253,29.1929706 C151.521253,32.8761504 153.954001,35.318629 156.902491,35.318629 C159.850981,35.318629 162.312921,32.9296709 162.312921,29.2027016 L162.327518,29.1929706 Z" id="Shape"></path>
                <polygon id="Path" points="172.194742 10.0375164 178.490693 10.0375164 178.490693 40.252241 172.194742 40.252241"></polygon>
                <path d="M182.110621,29.285415 L182.110621,29.2027016 C182.110621,22.877558 186.620935,17.6568817 193.077447,17.6568817 C200.487596,17.6568817 203.878846,23.407897 203.878846,29.6989821 C203.878846,30.1855316 203.839922,30.7742565 203.800998,31.3532505 L188.357917,31.3532505 C188.9807,34.2092961 190.965822,35.7030031 193.782944,35.7030031 C195.894569,35.7030031 197.422334,35.0412958 199.164181,33.4259514 L202.764648,36.6128507 C200.691947,39.1769666 197.714264,40.7485215 193.70023,40.7485215 C187.034502,40.7485215 182.110621,36.0630497 182.110621,29.285415 Z M197.753188,27.4219304 C197.38341,24.6096742 195.729142,22.7024002 193.077447,22.7024002 C190.425752,22.7024002 188.771484,24.5658848 188.275203,27.4219304 L197.753188,27.4219304 Z" id="Shape"></path>
                <polygon id="Path" points="202.618683 11.2830832 209.654189 11.2830832 217.229765 31.6841041 224.80534 11.2782177 231.67542 11.2782177 219.959307 40.4419953 214.334795 40.4419953"></polygon>
                <path d="M234.33198,10.0375164 L240.953919,10.0375164 L240.953919,15.6279703 L234.33198,15.6279703 L234.33198,10.0375164 Z M234.502272,18.0607178 L240.76903,18.0607178 L240.76903,40.252241 L234.502272,40.252241 L234.502272,18.0607178 Z" id="Shape"></path>
                <path d="M243.941333,37.2696925 L246.631952,33.1437527 C249.030641,34.8807344 251.555833,35.790582 253.623668,35.790582 C255.448229,35.790582 256.275363,35.1288747 256.275363,34.1363137 L256.275363,34.0536002 C256.275363,32.6863961 254.124814,32.2339051 251.682335,31.4894843 C248.57815,30.5796367 245.060397,29.1297192 245.060397,24.823756 L245.060397,24.7264461 C245.060397,20.2161322 248.699787,17.6909402 253.171177,17.6909402 C256.116971,17.7357814 258.987902,18.6257702 261.442519,20.2550561 L259.04383,24.6048087 C256.849491,23.320318 254.664884,22.5321078 253.044674,22.5321078 C251.512043,22.5321078 250.723833,23.1938152 250.723833,24.0647388 L250.723833,24.1474522 C250.723833,25.3881535 252.835458,25.9671474 255.234147,26.799147 C258.338333,27.830632 261.938799,29.324339 261.938799,33.3772964 L261.938799,33.4600098 C261.938799,38.3838909 258.255619,40.6220186 253.458241,40.6220186 C250.001764,40.591983 246.653559,39.4125793 243.941333,37.2696925 L243.941333,37.2696925 Z" id="Path"></path>
                <path d="M263.923921,29.285415 L263.923921,29.2027016 C263.923921,22.828903 269.057018,17.6568817 275.970887,17.6568817 C282.884756,17.6568817 287.930274,22.7461896 287.930274,29.1199882 L287.930274,29.2027016 C287.930274,35.5765002 282.797177,40.7485215 275.888174,40.7485215 C268.979171,40.7485215 263.923921,35.6592136 263.923921,29.285415 Z M281.721902,29.285415 L281.721902,29.2027016 C281.721902,25.9330889 279.362137,23.0770433 275.883308,23.0770433 C272.282842,23.0770433 270.127427,25.8503755 270.127427,29.1199882 L270.127427,29.2027016 C270.127427,32.4723143 272.487192,35.32836 275.966021,35.32836 C279.571353,35.32836 281.721902,32.5550278 281.721902,29.285415 L281.721902,29.285415 Z" id="Shape"></path>
                <path d="M291.024729,18.0607178 L297.315814,18.0607178 L297.315814,22.5321078 C298.595439,19.4668459 300.66814,17.4817239 304.390244,17.6666127 L304.390244,24.2350311 L304.05939,24.2350311 C299.87993,24.2350311 297.315814,26.7602231 297.315814,32.0587473 L297.315814,40.252241 L291.024729,40.252241 L291.024729,18.0607178 Z" id="Path"></path>
            </g>
        </g>
    </g>
</svg>